<?xml version="1.0" encoding="UTF-8" standalone="no"?><svg xmlns="http://www.w3.org/2000/svg" xmlns:xlink="http://www.w3.org/1999/xlink" clip-rule="evenodd" stroke-miterlimit="10" viewBox="0 0 1024 768"><desc>SVG generated by Keynote</desc><defs></defs><g transform="matrix(1.00, 0.00, -0.00, -1.00, 0.0, 768.0)"><path d="M 0.0 768.0 L 1024.0 768.0 L 1024.0 0.0 L 0.0 0.0 Z M 0.0 768.0 " fill="#FEFFFF"></path><g><clipPath id="clip0x7f82bc03f080"><path d="M -1.0 767.0 L 510.0 767.0 L 510.0 -1.0 L -1.0 -1.0 Z M -0.7 766.6 "></path></clipPath><g clip-path="url(#clip0x7f82bc03f080)"><image xlink:href="C2AAFC6B994F1D4B69A5CDA9D3EEF1C1.jpeg" width="499.00" height="750.00" transform="matrix(1.02, 0.00, -0.00, -1.02, -0.7, 766.6)"></image></g></g><text xml:space="preserve" font-family="Helvetica-Bold,Helvetica" font-weight="bold" font-size="34.0" fill="#000000" transform="matrix(1.00, 0.00, -0.00, -1.00, 632.4, 352.0)">A</text><text xml:space="preserve" font-family="Helvetica-Bold,Helvetica" font-weight="bold" font-size="34.0" fill="#000000" transform="matrix(1.00, 0.00, -0.00, -1.00, 657.0, 352.0)">m</text><text xml:space="preserve" font-family="Helvetica-Bold,Helvetica" font-weight="bold" font-size="34.0" fill="#000000" transform="matrix(1.00, 0.00, -0.00, -1.00, 687.3, 352.0)">a</text><text xml:space="preserve" font-family="Helvetica-Bold,Helvetica" font-weight="bold" font-size="34.0" fill="#000000" transform="matrix(1.00, 0.00, -0.00, -1.00, 706.2, 352.0)">n</text><text xml:space="preserve" font-family="Helvetica-Bold,Helvetica" font-weight="bold" font-size="34.0" fill="#000000" transform="matrix(1.00, 0.00, -0.00, -1.00, 727.0, 352.0)">d</text><text xml:space="preserve" font-family="Helvetica-Bold,Helvetica" font-weight="bold" font-size="34.0" fill="#000000" transform="matrix(1.00, 0.00, -0.00, -1.00, 747.7, 352.0)">a</text><text xml:space="preserve" font-family="Helvetica-Bold,Helvetica" font-weight="bold" font-size="34.0" fill="#000000" transform="matrix(1.00, 0.00, -0.00, -1.00, 766.7, 352.0)"> </text><text xml:space="preserve" font-family="Helvetica-Bold,Helvetica" font-weight="bold" font-size="34.0" fill="#000000" transform="matrix(1.00, 0.00, -0.00, -1.00, 776.1, 352.0)">T</text><text xml:space="preserve" font-family="Helvetica-Bold,Helvetica" font-weight="bold" font-size="34.0" fill="#000000" transform="matrix(1.00, 0.00, -0.00, -1.00, 796.9, 352.0)"> </text><text xml:space="preserve" font-family="Helvetica-Bold,Helvetica" font-weight="bold" font-size="34.0" fill="#000000" transform="matrix(1.00, 0.00, -0.00, -1.00, 806.3, 352.0)">S</text><text xml:space="preserve" font-family="Helvetica-Bold,Helvetica" font-weight="bold" font-size="34.0" fill="#000000" transform="matrix(1.00, 0.00, -0.00, -1.00, 829.0, 352.0)">o</text><text xml:space="preserve" font-family="Helvetica-Bold,Helvetica" font-weight="bold" font-size="34.0" fill="#000000" transform="matrix(1.00, 0.00, -0.00, -1.00, 849.8, 352.0)">n</text><text xml:space="preserve" font-family="Helvetica-Bold,Helvetica" font-weight="bold" font-size="34.0" fill="#000000" transform="matrix(1.00, 0.00, -0.00, -1.00, 870.6, 352.0)">g</text><text xml:space="preserve" font-family="Helvetica-Light,Helvetica" font-size="25.6" fill="#000000" transform="matrix(1.00, 0.00, -0.00, -1.00, 595.7, 319.0)">a</text><text xml:space="preserve" font-family="Helvetica-Light,Helvetica" font-size="25.6" fill="#000000" transform="matrix(1.00, 0.00, -0.00, -1.00, 609.9, 319.0)">s</text><text xml:space="preserve" font-family="Helvetica-Light,Helvetica" font-size="25.6" fill="#000000" transform="matrix(1.00, 0.00, -0.00, -1.00, 622.7, 319.0)">o</text><text xml:space="preserve" font-family="Helvetica-Light,Helvetica" font-size="25.6" fill="#000000" transform="matrix(1.00, 0.00, -0.00, -1.00, 637.0, 319.0)">n</text><text xml:space="preserve" font-family="Helvetica-Light,Helvetica" font-size="25.6" fill="#000000" transform="matrix(1.00, 0.00, -0.00, -1.00, 651.2, 319.0)">g</text><text xml:space="preserve" font-family="Helvetica-Light,Helvetica" font-size="25.6" fill="#000000" transform="matrix(1.00, 0.00, -0.00, -1.00, 666.9, 319.0)">@</text><text xml:space="preserve" font-family="Helvetica-Light,Helvetica" font-size="25.6" fill="#000000" transform="matrix(1.00, 0.00, -0.00, -1.00, 687.4, 319.0)">c</text><text xml:space="preserve" font-family="Helvetica-Light,Helvetica" font-size="25.6" fill="#000000" transform="matrix(1.00, 0.00, -0.00, -1.00, 701.6, 319.0)">o</text><text xml:space="preserve" font-family="Helvetica-Light,Helvetica" font-size="25.6" fill="#000000" transform="matrix(1.00, 0.00, -0.00, -1.00, 715.9, 319.0)">n</text><text xml:space="preserve" font-family="Helvetica-Light,Helvetica" font-size="25.6" fill="#000000" transform="matrix(1.00, 0.00, -0.00, -1.00, 730.1, 319.0)">s</text><text xml:space="preserve" font-family="Helvetica-Light,Helvetica" font-size="25.6" fill="#000000" transform="matrix(1.00, 0.00, -0.00, -1.00, 742.9, 319.0)">t</text><text xml:space="preserve" font-family="Helvetica-Light,Helvetica" font-size="25.6" fill="#000000" transform="matrix(1.00, 0.00, -0.00, -1.00, 750.1, 319.0)">a</text><text xml:space="preserve" font-family="Helvetica-Light,Helvetica" font-size="25.6" fill="#000000" transform="matrix(1.00, 0.00, -0.00, -1.00, 764.3, 319.0)">n</text><text xml:space="preserve" font-family="Helvetica-Light,Helvetica" font-size="25.6" fill="#000000" transform="matrix(1.00, 0.00, -0.00, -1.00, 778.5, 319.0)">t</text><text xml:space="preserve" font-family="Helvetica-Light,Helvetica" font-size="25.6" fill="#000000" transform="matrix(1.00, 0.00, -0.00, -1.00, 785.7, 319.0)">c</text><text xml:space="preserve" font-family="Helvetica-Light,Helvetica" font-size="25.6" fill="#000000" transform="matrix(1.00, 0.00, -0.00, -1.00, 799.9, 319.0)">o</text><text xml:space="preserve" font-family="Helvetica-Light,Helvetica" font-size="25.6" fill="#000000" transform="matrix(1.00, 0.00, -0.00, -1.00, 814.2, 319.0)">n</text><text xml:space="preserve" font-family="Helvetica-Light,Helvetica" font-size="25.6" fill="#000000" transform="matrix(1.00, 0.00, -0.00, -1.00, 828.4, 319.0)">t</text><text xml:space="preserve" font-family="Helvetica-Light,Helvetica" font-size="25.6" fill="#000000" transform="matrix(1.00, 0.00, -0.00, -1.00, 835.5, 319.0)">a</text><text xml:space="preserve" font-family="Helvetica-Light,Helvetica" font-size="25.6" fill="#000000" transform="matrix(1.00, 0.00, -0.00, -1.00, 849.8, 319.0)">c</text><text xml:space="preserve" font-family="Helvetica-Light,Helvetica" font-size="25.6" fill="#000000" transform="matrix(1.00, 0.00, -0.00, -1.00, 864.0, 319.0)">t</text><text xml:space="preserve" font-family="Helvetica-Light,Helvetica" font-size="25.6" fill="#000000" transform="matrix(1.00, 0.00, -0.00, -1.00, 871.1, 319.0)">.</text><text xml:space="preserve" font-family="Helvetica-Light,Helvetica" font-size="25.6" fill="#000000" transform="matrix(1.00, 0.00, -0.00, -1.00, 878.3, 319.0)">c</text><text xml:space="preserve" font-family="Helvetica-Light,Helvetica" font-size="25.6" fill="#000000" transform="matrix(1.00, 0.00, -0.00, -1.00, 892.5, 319.0)">o</text><text xml:space="preserve" font-family="Helvetica-Light,Helvetica" font-size="25.6" fill="#000000" transform="matrix(1.00, 0.00, -0.00, -1.00, 906.7, 319.0)">m</text><text xml:space="preserve" font-family="Helvetica-Light,Helvetica" font-size="25.6" fill="#000000" transform="matrix(1.00, 0.00, -0.00, -1.00, 928.1, 319.0)"> </text><g><clipPath id="clip0x7f82bc1fb7a0"><path d="M 594.7 315.5 L 928.1 315.5 L 928.1 318.8 L 594.7 318.8 Z M 594.7 315.5 "></path></clipPath><g clip-path="url(#clip0x7f82bc1fb7a0)"><path d="M 112.7 92.0 L 445.1 92.0 " fill="none" stroke="#000000" stroke-width="1.28" transform="matrix(1.00, 0.00, 0.00, -1.00, 483.0, 409.1)"></path></g></g><text xml:space="preserve" font-family="Helvetica-Light,Helvetica" font-size="25.6" fill="#000000" transform="matrix(1.00, 0.00, -0.00, -1.00, 666.2, 288.0)">@</text><text xml:space="preserve" font-family="Helvetica-Light,Helvetica" font-size="25.6" fill="#000000" transform="matrix(1.00, 0.00, -0.00, -1.00, 686.7, 288.0)">A</text><text xml:space="preserve" font-family="Helvetica-Light,Helvetica" font-size="25.6" fill="#000000" transform="matrix(1.00, 0.00, -0.00, -1.00, 703.8, 288.0)">m</text><text xml:space="preserve" font-family="Helvetica-Light,Helvetica" font-size="25.6" fill="#000000" transform="matrix(1.00, 0.00, -0.00, -1.00, 725.1, 288.0)">a</text><text xml:space="preserve" font-family="Helvetica-Light,Helvetica" font-size="25.6" fill="#000000" transform="matrix(1.00, 0.00, -0.00, -1.00, 739.4, 288.0)">n</text><text xml:space="preserve" font-family="Helvetica-Light,Helvetica" font-size="25.6" fill="#000000" transform="matrix(1.00, 0.00, -0.00, -1.00, 753.6, 288.0)">d</text><text xml:space="preserve" font-family="Helvetica-Light,Helvetica" font-size="25.6" fill="#000000" transform="matrix(1.00, 0.00, -0.00, -1.00, 769.3, 288.0)">a</text><text xml:space="preserve" font-family="Helvetica-Light,Helvetica" font-size="25.6" fill="#000000" transform="matrix(1.00, 0.00, -0.00, -1.00, 783.5, 288.0)">T</text><text xml:space="preserve" font-family="Helvetica-Light,Helvetica" font-size="25.6" fill="#000000" transform="matrix(1.00, 0.00, -0.00, -1.00, 797.8, 288.0)">S</text><text xml:space="preserve" font-family="Helvetica-Light,Helvetica" font-size="25.6" fill="#000000" transform="matrix(1.00, 0.00, -0.00, -1.00, 813.4, 288.0)">o</text><text xml:space="preserve" font-family="Helvetica-Light,Helvetica" font-size="25.6" fill="#000000" transform="matrix(1.00, 0.00, -0.00, -1.00, 827.7, 288.0)">n</text><text xml:space="preserve" font-family="Helvetica-Light,Helvetica" font-size="25.6" fill="#000000" transform="matrix(1.00, 0.00, -0.00, -1.00, 841.9, 288.0)">g</text><text xml:space="preserve" font-family="Helvetica-Light,Helvetica" font-size="25.6" fill="#000000" transform="matrix(1.00, 0.00, -0.00, -1.00, 857.6, 288.0)"> </text><text xml:space="preserve" font-family="Helvetica-Bold,Helvetica" font-weight="bold" font-size="15.0" fill="#00FCFF" transform="matrix(1.00, 0.00, -0.00, -1.00, 3.6, 12.5)">h</text><text xml:space="preserve" font-family="Helvetica-Bold,Helvetica" font-weight="bold" font-size="15.0" fill="#00FCFF" transform="matrix(1.00, 0.00, -0.00, -1.00, 12.8, 12.5)">t</text><text xml:space="preserve" font-family="Helvetica-Bold,Helvetica" font-weight="bold" font-size="15.0" fill="#00FCFF" transform="matrix(1.00, 0.00, -0.00, -1.00, 17.8, 12.5)">t</text><text xml:space="preserve" font-family="Helvetica-Bold,Helvetica" font-weight="bold" font-size="15.0" fill="#00FCFF" transform="matrix(1.00, 0.00, -0.00, -1.00, 22.8, 12.5)">p</text><text xml:space="preserve" font-family="Helvetica-Bold,Helvetica" font-weight="bold" font-size="15.0" fill="#00FCFF" transform="matrix(1.00, 0.00, -0.00, -1.00, 32.0, 12.5)">:</text><text xml:space="preserve" font-family="Helvetica-Bold,Helvetica" font-weight="bold" font-size="15.0" fill="#00FCFF" transform="matrix(1.00, 0.00, -0.00, -1.00, 37.0, 12.5)">/</text><text xml:space="preserve" font-family="Helvetica-Bold,Helvetica" font-weight="bold" font-size="15.0" fill="#00FCFF" transform="matrix(1.00, 0.00, -0.00, -1.00, 41.2, 12.5)">/</text><text xml:space="preserve" font-family="Helvetica-Bold,Helvetica" font-weight="bold" font-size="15.0" fill="#00FCFF" transform="matrix(1.00, 0.00, -0.00, -1.00, 45.3, 12.5)">p</text><text xml:space="preserve" font-family="Helvetica-Bold,Helvetica" font-weight="bold" font-size="15.0" fill="#00FCFF" transform="matrix(1.00, 0.00, -0.00, -1.00, 54.5, 12.5)">r</text><text xml:space="preserve" font-family="Helvetica-Bold,Helvetica" font-weight="bold" font-size="15.0" fill="#00FCFF" transform="matrix(1.00, 0.00, -0.00, -1.00, 60.4, 12.5)">o</text><text xml:space="preserve" font-family="Helvetica-Bold,Helvetica" font-weight="bold" font-size="15.0" fill="#00FCFF" transform="matrix(1.00, 0.00, -0.00, -1.00, 69.6, 12.5)">g</text><text xml:space="preserve" font-family="Helvetica-Bold,Helvetica" font-weight="bold" font-size="15.0" fill="#00FCFF" transform="matrix(1.00, 0.00, -0.00, -1.00, 78.7, 12.5)">r</text><text xml:space="preserve" font-family="Helvetica-Bold,Helvetica" font-weight="bold" font-size="15.0" fill="#00FCFF" transform="matrix(1.00, 0.00, -0.00, -1.00, 84.6, 12.5)">a</text><text xml:space="preserve" font-family="Helvetica-Bold,Helvetica" font-weight="bold" font-size="15.0" fill="#00FCFF" transform="matrix(1.00, 0.00, -0.00, -1.00, 93.0, 12.5)">m</text><text xml:space="preserve" font-family="Helvetica-Bold,Helvetica" font-weight="bold" font-size="15.0" fill="#00FCFF" transform="matrix(1.00, 0.00, -0.00, -1.00, 106.3, 12.5)">m</text><text xml:space="preserve" font-family="Helvetica-Bold,Helvetica" font-weight="bold" font-size="15.0" fill="#00FCFF" transform="matrix(1.00, 0.00, -0.00, -1.00, 119.7, 12.5)">e</text><text xml:space="preserve" font-family="Helvetica-Bold,Helvetica" font-weight="bold" font-size="15.0" fill="#00FCFF" transform="matrix(1.00, 0.00, -0.00, -1.00, 128.1, 12.5)">r</text><text xml:space="preserve" font-family="Helvetica-Bold,Helvetica" font-weight="bold" font-size="15.0" fill="#00FCFF" transform="matrix(1.00, 0.00, -0.00, -1.00, 133.9, 12.5)">r</text><text xml:space="preserve" font-family="Helvetica-Bold,Helvetica" font-weight="bold" font-size="15.0" fill="#00FCFF" transform="matrix(1.00, 0.00, -0.00, -1.00, 139.8, 12.5)">y</text><text xml:space="preserve" font-family="Helvetica-Bold,Helvetica" font-weight="bold" font-size="15.0" fill="#00FCFF" transform="matrix(1.00, 0.00, -0.00, -1.00, 148.2, 12.5)">a</text><text xml:space="preserve" font-family="Helvetica-Bold,Helvetica" font-weight="bold" font-size="15.0" fill="#00FCFF" transform="matrix(1.00, 0.00, -0.00, -1.00, 156.5, 12.5)">n</text><text xml:space="preserve" font-family="Helvetica-Bold,Helvetica" font-weight="bold" font-size="15.0" fill="#00FCFF" transform="matrix(1.00, 0.00, -0.00, -1.00, 165.7, 12.5)">g</text><text xml:space="preserve" font-family="Helvetica-Bold,Helvetica" font-weight="bold" font-size="15.0" fill="#00FCFF" transform="matrix(1.00, 0.00, -0.00, -1.00, 174.9, 12.5)">o</text><text xml:space="preserve" font-family="Helvetica-Bold,Helvetica" font-weight="bold" font-size="15.0" fill="#00FCFF" transform="matrix(1.00, 0.00, -0.00, -1.00, 184.1, 12.5)">s</text><text xml:space="preserve" font-family="Helvetica-Bold,Helvetica" font-weight="bold" font-size="15.0" fill="#00FCFF" transform="matrix(1.00, 0.00, -0.00, -1.00, 192.4, 12.5)">l</text><text xml:space="preserve" font-family="Helvetica-Bold,Helvetica" font-weight="bold" font-size="15.0" fill="#00FCFF" transform="matrix(1.00, 0.00, -0.00, -1.00, 196.6, 12.5)">i</text><text xml:space="preserve" font-family="Helvetica-Bold,Helvetica" font-weight="bold" font-size="15.0" fill="#00FCFF" transform="matrix(1.00, 0.00, -0.00, -1.00, 200.8, 12.5)">n</text><text xml:space="preserve" font-family="Helvetica-Bold,Helvetica" font-weight="bold" font-size="15.0" fill="#00FCFF" transform="matrix(1.00, 0.00, -0.00, -1.00, 210.0, 12.5)">g</text><text xml:space="preserve" font-family="Helvetica-Bold,Helvetica" font-weight="bold" font-size="15.0" fill="#00FCFF" transform="matrix(1.00, 0.00, -0.00, -1.00, 219.2, 12.5)">.</text><text xml:space="preserve" font-family="Helvetica-Bold,Helvetica" font-weight="bold" font-size="15.0" fill="#00FCFF" transform="matrix(1.00, 0.00, -0.00, -1.00, 223.3, 12.5)">t</text><text xml:space="preserve" font-family="Helvetica-Bold,Helvetica" font-weight="bold" font-size="15.0" fill="#00FCFF" transform="matrix(1.00, 0.00, -0.00, -1.00, 228.3, 12.5)">u</text><text xml:space="preserve" font-family="Helvetica-Bold,Helvetica" font-weight="bold" font-size="15.0" fill="#00FCFF" transform="matrix(1.00, 0.00, -0.00, -1.00, 237.5, 12.5)">m</text><text xml:space="preserve" font-family="Helvetica-Bold,Helvetica" font-weight="bold" font-size="15.0" fill="#00FCFF" transform="matrix(1.00, 0.00, -0.00, -1.00, 250.9, 12.5)">b</text><text xml:space="preserve" font-family="Helvetica-Bold,Helvetica" font-weight="bold" font-size="15.0" fill="#00FCFF" transform="matrix(1.00, 0.00, -0.00, -1.00, 260.1, 12.5)">l</text><text xml:space="preserve" font-family="Helvetica-Bold,Helvetica" font-weight="bold" font-size="15.0" fill="#00FCFF" transform="matrix(1.00, 0.00, -0.00, -1.00, 264.3, 12.5)">r</text><text xml:space="preserve" font-family="Helvetica-Bold,Helvetica" font-weight="bold" font-size="15.0" fill="#00FCFF" transform="matrix(1.00, 0.00, -0.00, -1.00, 269.3, 12.5)">.</text><text xml:space="preserve" font-family="Helvetica-Bold,Helvetica" font-weight="bold" font-size="15.0" fill="#00FCFF" transform="matrix(1.00, 0.00, -0.00, -1.00, 273.5, 12.5)">c</text><text xml:space="preserve" font-family="Helvetica-Bold,Helvetica" font-weight="bold" font-size="15.0" fill="#00FCFF" transform="matrix(1.00, 0.00, -0.00, -1.00, 281.8, 12.5)">o</text><text xml:space="preserve" font-family="Helvetica-Bold,Helvetica" font-weight="bold" font-size="15.0" fill="#00FCFF" transform="matrix(1.00, 0.00, -0.00, -1.00, 291.0, 12.5)">m</text><g><clipPath id="clip0x7f82b70ba6a0"><path d="M 2.6 9.9 L 304.4 9.9 L 304.4 12.7 L 2.6 12.7 Z M 2.6 9.9 "></path></clipPath><g clip-path="url(#clip0x7f82b70ba6a0)"><path d="M 4.0 19.7 L 304.9 19.7 " fill="none" stroke="#00FCFF" stroke-width="0.74" transform="matrix(1.00, 0.00, 0.00, -1.00, -0.4, 31.0)"></path></g></g></g></svg>